solid 
facet normal -1 0 0
 outer loop
  vertex -0.5 -0.4 0.39999998
  vertex -0.5 -0.5 0.39999998
  vertex -0.5 -0.5 0.5
 endloop
endfacet
facet normal -1 -0 -0
 outer loop
  vertex -0.5 -0.4 0.39999998
  vertex -0.5 -0.5 0.5
  vertex -0.5 -0.4 0.5
 endloop
endfacet
facet normal -0 0 1
 outer loop
  vertex 0.4 0.4 0.5
  vertex 0.4 0.5 0.5
  vertex 0 0.5 0.5
 endloop
endfacet
facet normal -0 0 1
 outer loop
  vertex 0.4 0.4 0.5
  vertex 0 0.5 0.5
  vertex 0 0.4 0.5
 endloop
endfacet
facet normal -1 0 0
 outer loop
  vertex -0.5 0.4 -0.5
  vertex -0.5 0 -0.5
  vertex -0.5 0 -0.40000004
 endloop
endfacet
facet normal -1 0 -0
 outer loop
  vertex -0.5 0.4 -0.5
  vertex -0.5 0 -0.40000004
  vertex -0.5 0.4 -0.4
 endloop
endfacet
facet normal -0 1 0
 outer loop
  vertex 0.4 0.5 -0.5
  vertex 0 0.5 -0.5
  vertex 0 0.5 -0.40000004
 endloop
endfacet
facet normal 0 1 0
 outer loop
  vertex 0.4 0.5 -0.5
  vertex 0 0.5 -0.40000004
  vertex 0.4 0.5 -0.4
 endloop
endfacet
facet normal 1 -7.4505806e-08 0
 outer loop
  vertex -0.40000004 0 -0.5
  vertex -0.4 0.4 -0.5
  vertex -0.4 0.4 -0.4
 endloop
endfacet
facet normal 1 -7.45058e-08 0
 outer loop
  vertex -0.40000004 0 -0.5
  vertex -0.4 0.4 -0.4
  vertex -0.40000004 0 -0.40000004
 endloop
endfacet
facet normal 1 0 0
 outer loop
  vertex 0.4 0.4 -0.5
  vertex 0.4 0.5 -0.5
  vertex 0.4 0.5 -0.4
 endloop
endfacet
facet normal 1 -0 0
 outer loop
  vertex 0.4 0.4 -0.5
  vertex 0.4 0.5 -0.4
  vertex 0.4 0.4 -0.4
 endloop
endfacet
facet normal -0 1 0
 outer loop
  vertex 0.5 0.4 -0.5
  vertex 0.4 0.4 -0.5
  vertex 0.4 0.4 -0.4
 endloop
endfacet
facet normal 0 1 0
 outer loop
  vertex 0.5 0.4 -0.5
  vertex 0.4 0.4 -0.4
  vertex 0.5 0.4 -0.4
 endloop
endfacet
facet normal -0 -1 -0
 outer loop
  vertex -0.5 -0.4 -0.5
  vertex -0.4 -0.4 -0.5
  vertex -0.4 -0.4 -0.4
 endloop
endfacet
facet normal 0 -1 -0
 outer loop
  vertex -0.5 -0.4 -0.5
  vertex -0.4 -0.4 -0.4
  vertex -0.5 -0.4 -0.4
 endloop
endfacet
facet normal -0 1 0
 outer loop
  vertex -0.4 0.5 0.39999998
  vertex -0.5 0.5 0.39999998
  vertex -0.5 0.5 0.5
 endloop
endfacet
facet normal 0 1 0
 outer loop
  vertex -0.4 0.5 0.39999998
  vertex -0.5 0.5 0.5
  vertex -0.4 0.5 0.5
 endloop
endfacet
facet normal -7.4505806e-08 -1 -0
 outer loop
  vertex 4.257475e-09 0.40000004 -0.5
  vertex 0.4 0.4 -0.5
  vertex 0.4 0.4 -0.4
 endloop
endfacet
facet normal -7.45058e-08 -1 0
 outer loop
  vertex 4.257475e-09 0.40000004 -0.5
  vertex 0.4 0.4 -0.4
  vertex 4.257475e-09 0.40000004 -0.40000004
 endloop
endfacet
facet normal -1 -7.45058e-08 -0
 outer loop
  vertex 0.4 0.4 -0.5
  vertex 0.40000004 0 -0.5
  vertex 0.40000004 0 -0.40000004
 endloop
endfacet
facet normal -1 -7.4505806e-08 0
 outer loop
  vertex 0.4 0.4 -0.5
  vertex 0.40000004 0 -0.40000004
  vertex 0.4 0.4 -0.4
 endloop
endfacet
facet normal 1 7.45058e-08 0
 outer loop
  vertex -0.4 -0.4 -0.5
  vertex -0.40000004 0 -0.5
  vertex -0.40000004 0 -0.40000004
 endloop
endfacet
facet normal 1 7.4505806e-08 0
 outer loop
  vertex -0.4 -0.4 -0.5
  vertex -0.40000004 0 -0.40000004
  vertex -0.4 -0.4 -0.4
 endloop
endfacet
facet normal -1 0 0
 outer loop
  vertex -0.4 -0.4 -0.5
  vertex -0.4 -0.5 -0.5
  vertex -0.4 -0.5 -0.4
 endloop
endfacet
facet normal -1 -0 -0
 outer loop
  vertex -0.4 -0.4 -0.5
  vertex -0.4 -0.5 -0.4
  vertex -0.4 -0.4 -0.4
 endloop
endfacet
facet normal 0 1 0
 outer loop
  vertex -0.4 0.5 0.39999998
  vertex -0.4 0.5 0.5
  vertex 0 0.5 0.5
 endloop
endfacet
facet normal 0 1 -0
 outer loop
  vertex -0.4 0.5 0.39999998
  vertex 0 0.5 0.5
  vertex 0 0.5 0.39999998
 endloop
endfacet
facet normal -1 0 0
 outer loop
  vertex -0.4 0.5 -0.5
  vertex -0.4 0.4 -0.5
  vertex -0.4 0.4 -0.4
 endloop
endfacet
facet normal -1 -0 -0
 outer loop
  vertex -0.4 0.5 -0.5
  vertex -0.4 0.4 -0.4
  vertex -0.4 0.5 -0.4
 endloop
endfacet
facet normal 1 0 0
 outer loop
  vertex 0.5 0 -0.5
  vertex 0.5 0.4 -0.5
  vertex 0.5 0.4 -0.4
 endloop
endfacet
facet normal 1 -0 0
 outer loop
  vertex 0.5 0 -0.5
  vertex 0.5 0.4 -0.4
  vertex 0.5 0 -0.40000004
 endloop
endfacet
facet normal -0 -1 -0
 outer loop
  vertex 0 -0.5 -0.5
  vertex 0.4 -0.5 -0.5
  vertex 0.4 -0.5 -0.4
 endloop
endfacet
facet normal 0 -1 -0
 outer loop
  vertex 0 -0.5 -0.5
  vertex 0.4 -0.5 -0.4
  vertex 0 -0.5 -0.40000004
 endloop
endfacet
facet normal 0 -0 1
 outer loop
  vertex 0.4 -0.4 0.5
  vertex 0.4 -0.5 0.5
  vertex 0.5 -0.5 0.5
 endloop
endfacet
facet normal 0 0 1
 outer loop
  vertex 0.4 -0.4 0.5
  vertex 0.5 -0.5 0.5
  vertex 0.5 -0.4 0.5
 endloop
endfacet
facet normal 0 -0 1
 outer loop
  vertex -0.5 -0.4 0.5
  vertex -0.5 -0.5 0.5
  vertex -0.4 -0.5 0.5
 endloop
endfacet
facet normal 0 0 1
 outer loop
  vertex -0.5 -0.4 0.5
  vertex -0.4 -0.5 0.5
  vertex -0.4 -0.4 0.5
 endloop
endfacet
facet normal 0 -0 1
 outer loop
  vertex -0.5 0.5 0.5
  vertex -0.5 0.4 0.5
  vertex -0.4 0.4 0.5
 endloop
endfacet
facet normal 0 0 1
 outer loop
  vertex -0.5 0.5 0.5
  vertex -0.4 0.4 0.5
  vertex -0.4 0.5 0.5
 endloop
endfacet
facet normal 0 -0 1
 outer loop
  vertex 0.4 0.5 0.5
  vertex 0.4 0.4 0.5
  vertex 0.5 0.4 0.5
 endloop
endfacet
facet normal 0 0 1
 outer loop
  vertex 0.4 0.5 0.5
  vertex 0.5 0.4 0.5
  vertex 0.5 0.5 0.5
 endloop
endfacet
facet normal -1 0 0
 outer loop
  vertex -0.5 0.5 0.39999998
  vertex -0.5 0.4 0.39999998
  vertex -0.5 0.4 0.5
 endloop
endfacet
facet normal -1 -0 -0
 outer loop
  vertex -0.5 0.5 0.39999998
  vertex -0.5 0.4 0.5
  vertex -0.5 0.5 0.5
 endloop
endfacet
facet normal -0 -1 -0
 outer loop
  vertex 0.4 -0.5 0.39999998
  vertex 0.5 -0.5 0.39999998
  vertex 0.5 -0.5 0.5
 endloop
endfacet
facet normal 0 -1 -0
 outer loop
  vertex 0.4 -0.5 0.39999998
  vertex 0.5 -0.5 0.5
  vertex 0.4 -0.5 0.5
 endloop
endfacet
facet normal 0 0 -1
 outer loop
  vertex -0.5 0.4 0.39999998
  vertex -0.4 0.4 0.39999998
  vertex -0.4 0 0.39999998
 endloop
endfacet
facet normal 0 0 -1
 outer loop
  vertex -0.5 0.4 0.39999998
  vertex -0.4 0 0.39999998
  vertex -0.5 0 0.39999998
 endloop
endfacet
facet normal -0 0 1
 outer loop
  vertex 0.4 -0.5 0.5
  vertex 0.4 -0.4 0.5
  vertex 0 -0.4 0.5
 endloop
endfacet
facet normal -0 0 1
 outer loop
  vertex 0.4 -0.5 0.5
  vertex 0 -0.4 0.5
  vertex 0 -0.5 0.5
 endloop
endfacet
facet normal -1 -0 -0
 outer loop
  vertex -0.5 -0.4 0.39999998
  vertex -0.5 -0.4 0.5
  vertex -0.5 0 0.5
 endloop
endfacet
facet normal -1 -0 0
 outer loop
  vertex -0.5 -0.4 0.39999998
  vertex -0.5 0 0.5
  vertex -0.5 0 0.39999998
 endloop
endfacet
facet normal 1 0 0
 outer loop
  vertex 0.5 0.4 0.39999998
  vertex 0.5 0.5 0.39999998
  vertex 0.5 0.5 0.5
 endloop
endfacet
facet normal 1 -0 0
 outer loop
  vertex 0.5 0.4 0.39999998
  vertex 0.5 0.5 0.5
  vertex 0.5 0.4 0.5
 endloop
endfacet
facet normal 1 0 0
 outer loop
  vertex 0.5 -0.5 0.39999998
  vertex 0.5 -0.4 0.39999998
  vertex 0.5 -0.4 0.5
 endloop
endfacet
facet normal 1 -0 0
 outer loop
  vertex 0.5 -0.5 0.39999998
  vertex 0.5 -0.4 0.5
  vertex 0.5 -0.5 0.5
 endloop
endfacet
facet normal 0 0 1
 outer loop
  vertex 0.5 0.4 0.5
  vertex 0.4 0.4 0.5
  vertex 0.4 0 0.5
 endloop
endfacet
facet normal 0 -0 1
 outer loop
  vertex 0.5 0.4 0.5
  vertex 0.4 0 0.5
  vertex 0.5 0 0.5
 endloop
endfacet
facet normal -0 1 0
 outer loop
  vertex 0.5 0.5 0.39999998
  vertex 0.4 0.5 0.39999998
  vertex 0.4 0.5 0.5
 endloop
endfacet
facet normal 0 1 0
 outer loop
  vertex 0.5 0.5 0.39999998
  vertex 0.4 0.5 0.5
  vertex 0.5 0.5 0.5
 endloop
endfacet
facet normal -1 -0 -0
 outer loop
  vertex 0.4 -0.4 0.39999998
  vertex 0.4 -0.4 0.5
  vertex 0.4 0 0.5
 endloop
endfacet
facet normal -1 -0 0
 outer loop
  vertex 0.4 -0.4 0.39999998
  vertex 0.4 0 0.5
  vertex 0.4 0 0.39999998
 endloop
endfacet
facet normal -0 -0 -1
 outer loop
  vertex -0.4 -0.5 0.39999998
  vertex -0.4 -0.4 0.39999998
  vertex 0 -0.4 0.39999998
 endloop
endfacet
facet normal -0 0 -1
 outer loop
  vertex -0.4 -0.5 0.39999998
  vertex 0 -0.4 0.39999998
  vertex 0 -0.5 0.39999998
 endloop
endfacet
facet normal -0 -1 -0
 outer loop
  vertex -0.5 -0.5 0.39999998
  vertex -0.4 -0.5 0.39999998
  vertex -0.4 -0.5 0.5
 endloop
endfacet
facet normal 0 -1 -0
 outer loop
  vertex -0.5 -0.5 0.39999998
  vertex -0.4 -0.5 0.5
  vertex -0.5 -0.5 0.5
 endloop
endfacet
facet normal 7.4505806e-08 -0 1
 outer loop
  vertex -0.4 -0.4 -0.4
  vertex -0.4 -0.5 -0.4
  vertex 0 -0.5 -0.40000004
 endloop
endfacet
facet normal 7.45058e-08 0 1
 outer loop
  vertex -0.4 -0.4 -0.4
  vertex 0 -0.5 -0.40000004
  vertex 0 -0.40000004 -0.40000004
 endloop
endfacet
facet normal -7.45058e-08 0 1
 outer loop
  vertex 0 -0.40000004 -0.40000004
  vertex 0 -0.5 -0.40000004
  vertex 0.4 -0.5 -0.4
 endloop
endfacet
facet normal -7.4505806e-08 0 1
 outer loop
  vertex 0 -0.40000004 -0.40000004
  vertex 0.4 -0.5 -0.4
  vertex 0.4 -0.4 -0.4
 endloop
endfacet
facet normal -7.45058e-08 -3.1720668e-15 1
 outer loop
  vertex 0 0.5 -0.40000004
  vertex 4.257475e-09 0.40000004 -0.40000004
  vertex 0.4 0.4 -0.4
 endloop
endfacet
facet normal -7.4505806e-08 0 1
 outer loop
  vertex 0 0.5 -0.40000004
  vertex 0.4 0.4 -0.4
  vertex 0.4 0.5 -0.4
 endloop
endfacet
facet normal 7.4505806e-08 -0 1
 outer loop
  vertex -0.4 0.5 -0.4
  vertex -0.4 0.4 -0.4
  vertex 4.257475e-09 0.40000004 -0.40000004
 endloop
endfacet
facet normal 7.45058e-08 3.1720668e-15 1
 outer loop
  vertex -0.4 0.5 -0.4
  vertex 4.257475e-09 0.40000004 -0.40000004
  vertex 0 0.5 -0.40000004
 endloop
endfacet
facet normal 0 -7.45058e-08 1
 outer loop
  vertex -0.5 0.4 -0.4
  vertex -0.5 0 -0.40000004
  vertex -0.40000004 0 -0.40000004
 endloop
endfacet
facet normal 0 -7.4505806e-08 1
 outer loop
  vertex -0.5 0.4 -0.4
  vertex -0.40000004 0 -0.40000004
  vertex -0.4 0.4 -0.4
 endloop
endfacet
facet normal 0 0 -1
 outer loop
  vertex 0.5 0.4 -0.5
  vertex 0.4 0.4 -0.5
  vertex 0.4 0.5 -0.5
 endloop
endfacet
facet normal -0 -0 -1
 outer loop
  vertex 0.5 0.4 -0.5
  vertex 0.4 0.5 -0.5
  vertex 0.5 0.5 -0.5
 endloop
endfacet
facet normal -0 -0 -1
 outer loop
  vertex 0.4 -0.5 -0.5
  vertex 0.4 -0.4 -0.5
  vertex 0.5 -0.4 -0.5
 endloop
endfacet
facet normal -0 0 -1
 outer loop
  vertex 0.4 -0.5 -0.5
  vertex 0.5 -0.4 -0.5
  vertex 0.5 -0.5 -0.5
 endloop
endfacet
facet normal 0 0 -1
 outer loop
  vertex -0.5 -0.4 -0.5
  vertex -0.4 -0.4 -0.5
  vertex -0.4 -0.5 -0.5
 endloop
endfacet
facet normal 0 0 -1
 outer loop
  vertex -0.5 -0.4 -0.5
  vertex -0.4 -0.5 -0.5
  vertex -0.5 -0.5 -0.5
 endloop
endfacet
facet normal 0 7.4505806e-08 1
 outer loop
  vertex -0.5 0 -0.40000004
  vertex -0.5 -0.4 -0.4
  vertex -0.4 -0.4 -0.4
 endloop
endfacet
facet normal 0 7.45058e-08 1
 outer loop
  vertex -0.5 0 -0.40000004
  vertex -0.4 -0.4 -0.4
  vertex -0.40000004 0 -0.40000004
 endloop
endfacet
facet normal 0 -7.45058e-08 1
 outer loop
  vertex 0.4 0.4 -0.4
  vertex 0.40000004 0 -0.40000004
  vertex 0.5 0 -0.40000004
 endloop
endfacet
facet normal 0 -7.4505806e-08 1
 outer loop
  vertex 0.4 0.4 -0.4
  vertex 0.5 0 -0.40000004
  vertex 0.5 0.4 -0.4
 endloop
endfacet
facet normal 0 0 -1
 outer loop
  vertex 0.5 0 -0.5
  vertex 0.5 -0.4 -0.5
  vertex 0.4 -0.4 -0.5
 endloop
endfacet
facet normal -0 -0 -1
 outer loop
  vertex 0.40000004 0 -0.5
  vertex 0.4 0.4 -0.5
  vertex 0.5 0.4 -0.5
 endloop
endfacet
facet normal 0 -0 -1
 outer loop
  vertex 0.5 0 -0.5
  vertex 0.4 -0.4 -0.5
  vertex 0.40000004 0 -0.5
 endloop
endfacet
facet normal -0 0 -1
 outer loop
  vertex 0.40000004 0 -0.5
  vertex 0.5 0.4 -0.5
  vertex 0.5 0 -0.5
 endloop
endfacet
facet normal 0 7.4505806e-08 1
 outer loop
  vertex 0.40000004 0 -0.40000004
  vertex 0.4 -0.4 -0.4
  vertex 0.5 -0.4 -0.4
 endloop
endfacet
facet normal 0 7.45058e-08 1
 outer loop
  vertex 0.40000004 0 -0.40000004
  vertex 0.5 -0.4 -0.4
  vertex 0.5 0 -0.40000004
 endloop
endfacet
facet normal -7.45058e-08 1 0
 outer loop
  vertex 0.4 -0.4 -0.5
  vertex 0 -0.40000004 -0.5
  vertex 0 -0.40000004 -0.40000004
 endloop
endfacet
facet normal -7.4505806e-08 1 0
 outer loop
  vertex 0.4 -0.4 -0.5
  vertex 0 -0.40000004 -0.40000004
  vertex 0.4 -0.4 -0.4
 endloop
endfacet
facet normal -0 -1 -0
 outer loop
  vertex 0.4 -0.4 -0.5
  vertex 0.5 -0.4 -0.5
  vertex 0.5 -0.4 -0.4
 endloop
endfacet
facet normal 0 -1 -0
 outer loop
  vertex 0.4 -0.4 -0.5
  vertex 0.5 -0.4 -0.4
  vertex 0.4 -0.4 -0.4
 endloop
endfacet
facet normal 7.45058e-08 -1 0
 outer loop
  vertex -0.4 0.4 -0.5
  vertex 4.257475e-09 0.40000004 -0.5
  vertex 4.257475e-09 0.40000004 -0.40000004
 endloop
endfacet
facet normal 7.4505806e-08 -1 0
 outer loop
  vertex -0.4 0.4 -0.5
  vertex 4.257475e-09 0.40000004 -0.40000004
  vertex -0.4 0.4 -0.4
 endloop
endfacet
facet normal -0 1 0
 outer loop
  vertex 0 0.5 -0.5
  vertex -0.4 0.5 -0.5
  vertex -0.4 0.5 -0.4
 endloop
endfacet
facet normal 0 1 0
 outer loop
  vertex 0 0.5 -0.5
  vertex -0.4 0.5 -0.4
  vertex 0 0.5 -0.40000004
 endloop
endfacet
facet normal -1 0 0
 outer loop
  vertex -0.5 0 -0.5
  vertex -0.5 -0.4 -0.5
  vertex -0.5 -0.4 -0.4
 endloop
endfacet
facet normal -1 -0 -0
 outer loop
  vertex -0.5 0 -0.5
  vertex -0.5 -0.4 -0.4
  vertex -0.5 0 -0.40000004
 endloop
endfacet
facet normal -0 -1 -0
 outer loop
  vertex -0.4 -0.5 -0.5
  vertex 0 -0.5 -0.5
  vertex 0 -0.5 -0.40000004
 endloop
endfacet
facet normal 0 -1 -0
 outer loop
  vertex -0.4 -0.5 -0.5
  vertex 0 -0.5 -0.40000004
  vertex -0.4 -0.5 -0.4
 endloop
endfacet
facet normal 1 0 0
 outer loop
  vertex 0.5 -0.4 -0.5
  vertex 0.5 0 -0.5
  vertex 0.5 0 -0.40000004
 endloop
endfacet
facet normal 1 0 0
 outer loop
  vertex 0.5 -0.4 -0.5
  vertex 0.5 0 -0.40000004
  vertex 0.5 -0.4 -0.4
 endloop
endfacet
facet normal 1 0 0
 outer loop
  vertex 0.4 -0.5 -0.5
  vertex 0.4 -0.4 -0.5
  vertex 0.4 -0.4 -0.4
 endloop
endfacet
facet normal 1 -0 0
 outer loop
  vertex 0.4 -0.5 -0.5
  vertex 0.4 -0.4 -0.4
  vertex 0.4 -0.5 -0.4
 endloop
endfacet
facet normal -1 7.4505806e-08 0
 outer loop
  vertex 0.40000004 0 -0.5
  vertex 0.4 -0.4 -0.5
  vertex 0.4 -0.4 -0.4
 endloop
endfacet
facet normal -1 7.45058e-08 0
 outer loop
  vertex 0.40000004 0 -0.5
  vertex 0.4 -0.4 -0.4
  vertex 0.40000004 0 -0.40000004
 endloop
endfacet
facet normal 7.4505806e-08 1 0
 outer loop
  vertex 0 -0.40000004 -0.5
  vertex -0.4 -0.4 -0.5
  vertex -0.4 -0.4 -0.4
 endloop
endfacet
facet normal 7.45058e-08 1 0
 outer loop
  vertex 0 -0.40000004 -0.5
  vertex -0.4 -0.4 -0.4
  vertex 0 -0.40000004 -0.40000004
 endloop
endfacet
facet normal 0 0 -1
 outer loop
  vertex 0 0.5 -0.5
  vertex 0.4 0.5 -0.5
  vertex 0.4 0.4 -0.5
 endloop
endfacet
facet normal 0 0 -1
 outer loop
  vertex 4.257475e-09 0.40000004 -0.5
  vertex -0.4 0.4 -0.5
  vertex -0.4 0.5 -0.5
 endloop
endfacet
facet normal 0 0 -1
 outer loop
  vertex 0 0.5 -0.5
  vertex 0.4 0.4 -0.5
  vertex 4.257475e-09 0.40000004 -0.5
 endloop
endfacet
facet normal -0 -0 -1
 outer loop
  vertex 4.257475e-09 0.40000004 -0.5
  vertex -0.4 0.5 -0.5
  vertex 0 0.5 -0.5
 endloop
endfacet
facet normal -0 1 0
 outer loop
  vertex -0.4 0.4 -0.5
  vertex -0.5 0.4 -0.5
  vertex -0.5 0.4 -0.4
 endloop
endfacet
facet normal 0 1 0
 outer loop
  vertex -0.4 0.4 -0.5
  vertex -0.5 0.4 -0.4
  vertex -0.4 0.4 -0.4
 endloop
endfacet
facet normal -0 -1 -0
 outer loop
  vertex -0.5 -0.5 -0.5
  vertex -0.4 -0.5 -0.5
  vertex -0.4 -0.5 -0.40000004
 endloop
endfacet
facet normal 0 -1 -0
 outer loop
  vertex -0.5 -0.5 -0.5
  vertex -0.4 -0.5 -0.40000004
  vertex -0.5 -0.5 -0.4
 endloop
endfacet
facet normal -0 -1 -0
 outer loop
  vertex -0.5 -0.5 -0.4
  vertex -0.4 -0.5 -0.40000004
  vertex -0.40000004 -0.5 -7.237707e-08
 endloop
endfacet
facet normal 0 -1 -0
 outer loop
  vertex -0.5 -0.5 -0.4
  vertex -0.40000004 -0.5 -7.237707e-08
  vertex -0.5 -0.5 8.51495e-09
 endloop
endfacet
facet normal -0 -1 0
 outer loop
  vertex -0.5 -0.5 8.51495e-09
  vertex -0.40000004 -0.5 -7.237707e-08
  vertex -0.4 -0.5 0.39999998
 endloop
endfacet
facet normal 0 -1 -0
 outer loop
  vertex -0.5 -0.5 8.51495e-09
  vertex -0.4 -0.5 0.39999998
  vertex -0.5 -0.5 0.39999998
 endloop
endfacet
facet normal 1 0 0
 outer loop
  vertex -0.4 -0.5 -0.5
  vertex -0.4 -0.4 -0.5
  vertex -0.4 -0.4 -0.40000004
 endloop
endfacet
facet normal 1 -0 0
 outer loop
  vertex -0.4 -0.5 -0.5
  vertex -0.4 -0.4 -0.40000004
  vertex -0.4 -0.5 -0.40000004
 endloop
endfacet
facet normal 1 0 7.450581e-08
 outer loop
  vertex -0.4 -0.5 -0.40000004
  vertex -0.4 -0.4 -0.40000004
  vertex -0.40000004 -0.40000004 -7.237707e-08
 endloop
endfacet
facet normal 1 -0 7.4505806e-08
 outer loop
  vertex -0.4 -0.5 -0.40000004
  vertex -0.40000004 -0.40000004 -7.237707e-08
  vertex -0.40000004 -0.5 -7.237707e-08
 endloop
endfacet
facet normal 1 0 -7.45058e-08
 outer loop
  vertex -0.40000004 -0.5 -7.237707e-08
  vertex -0.40000004 -0.40000004 -7.237707e-08
  vertex -0.4 -0.4 0.39999998
 endloop
endfacet
facet normal 1 0 -7.45058e-08
 outer loop
  vertex -0.40000004 -0.5 -7.237707e-08
  vertex -0.4 -0.4 0.39999998
  vertex -0.4 -0.5 0.39999998
 endloop
endfacet
facet normal -0 1 0
 outer loop
  vertex -0.4 -0.4 -0.5
  vertex -0.5 -0.4 -0.5
  vertex -0.5 -0.4 -0.40000004
 endloop
endfacet
facet normal 0 1 0
 outer loop
  vertex -0.4 -0.4 -0.5
  vertex -0.5 -0.4 -0.40000004
  vertex -0.4 -0.4 -0.40000004
 endloop
endfacet
facet normal -0 1 7.450581e-08
 outer loop
  vertex -0.4 -0.4 -0.40000004
  vertex -0.5 -0.4 -0.40000004
  vertex -0.5 -0.40000004 -7.237707e-08
 endloop
endfacet
facet normal 0 1 7.4505806e-08
 outer loop
  vertex -0.4 -0.4 -0.40000004
  vertex -0.5 -0.40000004 -7.237707e-08
  vertex -0.40000004 -0.40000004 -7.237707e-08
 endloop
endfacet
facet normal 0 1 -7.45058e-08
 outer loop
  vertex -0.40000004 -0.40000004 -7.237707e-08
  vertex -0.5 -0.40000004 -7.237707e-08
  vertex -0.5 -0.4 0.39999998
 endloop
endfacet
facet normal 0 1 -7.45058e-08
 outer loop
  vertex -0.40000004 -0.40000004 -7.237707e-08
  vertex -0.5 -0.4 0.39999998
  vertex -0.4 -0.4 0.39999998
 endloop
endfacet
facet normal -1 0 0
 outer loop
  vertex -0.5 -0.4 -0.5
  vertex -0.5 -0.5 -0.5
  vertex -0.5 -0.5 -0.4
 endloop
endfacet
facet normal -1 -0 -0
 outer loop
  vertex -0.5 -0.4 -0.5
  vertex -0.5 -0.5 -0.4
  vertex -0.5 -0.4 -0.40000004
 endloop
endfacet
facet normal -1 0 0
 outer loop
  vertex -0.5 -0.4 -0.40000004
  vertex -0.5 -0.5 -0.4
  vertex -0.5 -0.5 8.51495e-09
 endloop
endfacet
facet normal -1 -0 -0
 outer loop
  vertex -0.5 -0.4 -0.40000004
  vertex -0.5 -0.5 8.51495e-09
  vertex -0.5 -0.40000004 -7.237707e-08
 endloop
endfacet
facet normal -1 0 0
 outer loop
  vertex -0.5 -0.40000004 -7.237707e-08
  vertex -0.5 -0.5 8.51495e-09
  vertex -0.5 -0.5 0.39999998
 endloop
endfacet
facet normal -1 -0 -0
 outer loop
  vertex -0.5 -0.40000004 -7.237707e-08
  vertex -0.5 -0.5 0.39999998
  vertex -0.5 -0.4 0.39999998
 endloop
endfacet
facet normal -0 1 0
 outer loop
  vertex 0.5 -0.4 -0.5
  vertex 0.4 -0.4 -0.5
  vertex 0.4 -0.4 -0.40000004
 endloop
endfacet
facet normal 0 1 0
 outer loop
  vertex 0.5 -0.4 -0.5
  vertex 0.4 -0.4 -0.40000004
  vertex 0.5 -0.4 -0.4
 endloop
endfacet
facet normal -2.2204464e-14 1 7.450581e-08
 outer loop
  vertex 0.5 -0.4 -0.4
  vertex 0.4 -0.4 -0.40000004
  vertex 0.40000004 -0.40000004 -7.237707e-08
 endloop
endfacet
facet normal -6.0269274e-14 1 7.45058e-08
 outer loop
  vertex 0.5 -0.4 -0.4
  vertex 0.40000004 -0.40000004 -7.237707e-08
  vertex 0.5 -0.40000004 8.51495e-09
 endloop
endfacet
facet normal 6.0269274e-14 1 -7.45058e-08
 outer loop
  vertex 0.5 -0.40000004 8.51495e-09
  vertex 0.40000004 -0.40000004 -7.237707e-08
  vertex 0.4 -0.4 0.39999998
 endloop
endfacet
facet normal 0 1 -7.450581e-08
 outer loop
  vertex 0.5 -0.40000004 8.51495e-09
  vertex 0.4 -0.4 0.39999998
  vertex 0.5 -0.4 0.39999998
 endloop
endfacet
facet normal 1 0 0
 outer loop
  vertex 0.5 -0.5 -0.5
  vertex 0.5 -0.4 -0.5
  vertex 0.5 -0.4 -0.4
 endloop
endfacet
facet normal 1 -0 0
 outer loop
  vertex 0.5 -0.5 -0.5
  vertex 0.5 -0.4 -0.4
  vertex 0.5 -0.5 -0.4
 endloop
endfacet
facet normal 1 0 0
 outer loop
  vertex 0.5 -0.5 -0.4
  vertex 0.5 -0.4 -0.4
  vertex 0.5 -0.40000004 8.51495e-09
 endloop
endfacet
facet normal 1 -0 0
 outer loop
  vertex 0.5 -0.5 -0.4
  vertex 0.5 -0.40000004 8.51495e-09
  vertex 0.5 -0.5 8.51495e-09
 endloop
endfacet
facet normal 1 0 0
 outer loop
  vertex 0.5 -0.5 8.51495e-09
  vertex 0.5 -0.40000004 8.51495e-09
  vertex 0.5 -0.4 0.39999998
 endloop
endfacet
facet normal 1 -0 0
 outer loop
  vertex 0.5 -0.5 8.51495e-09
  vertex 0.5 -0.4 0.39999998
  vertex 0.5 -0.5 0.39999998
 endloop
endfacet
facet normal -1 0 0
 outer loop
  vertex 0.4 -0.4 -0.5
  vertex 0.4 -0.5 -0.5
  vertex 0.4 -0.5 -0.40000004
 endloop
endfacet
facet normal -1 -0 -0
 outer loop
  vertex 0.4 -0.4 -0.5
  vertex 0.4 -0.5 -0.40000004
  vertex 0.4 -0.4 -0.40000004
 endloop
endfacet
facet normal -1 0 7.450581e-08
 outer loop
  vertex 0.4 -0.4 -0.40000004
  vertex 0.4 -0.5 -0.40000004
  vertex 0.40000004 -0.5 -7.237707e-08
 endloop
endfacet
facet normal -1 0 7.4505806e-08
 outer loop
  vertex 0.4 -0.4 -0.40000004
  vertex 0.40000004 -0.5 -7.237707e-08
  vertex 0.40000004 -0.40000004 -7.237707e-08
 endloop
endfacet
facet normal -1 0 -7.45058e-08
 outer loop
  vertex 0.40000004 -0.40000004 -7.237707e-08
  vertex 0.40000004 -0.5 -7.237707e-08
  vertex 0.4 -0.5 0.39999998
 endloop
endfacet
facet normal -1 -0 -7.45058e-08
 outer loop
  vertex 0.40000004 -0.40000004 -7.237707e-08
  vertex 0.4 -0.5 0.39999998
  vertex 0.4 -0.4 0.39999998
 endloop
endfacet
facet normal -0 -1 -0
 outer loop
  vertex 0.4 -0.5 -0.5
  vertex 0.5 -0.5 -0.5
  vertex 0.5 -0.5 -0.4
 endloop
endfacet
facet normal 0 -1 -0
 outer loop
  vertex 0.4 -0.5 -0.5
  vertex 0.5 -0.5 -0.4
  vertex 0.4 -0.5 -0.40000004
 endloop
endfacet
facet normal 0 -1 -0
 outer loop
  vertex 0.4 -0.5 -0.40000004
  vertex 0.5 -0.5 -0.4
  vertex 0.5 -0.5 8.51495e-09
 endloop
endfacet
facet normal 0 -1 -0
 outer loop
  vertex 0.4 -0.5 -0.40000004
  vertex 0.5 -0.5 8.51495e-09
  vertex 0.40000004 -0.5 -7.237707e-08
 endloop
endfacet
facet normal 0 -1 -0
 outer loop
  vertex 0.40000004 -0.5 -7.237707e-08
  vertex 0.5 -0.5 8.51495e-09
  vertex 0.5 -0.5 0.39999998
 endloop
endfacet
facet normal 0 -1 -0
 outer loop
  vertex 0.40000004 -0.5 -7.237707e-08
  vertex 0.5 -0.5 0.39999998
  vertex 0.4 -0.5 0.39999998
 endloop
endfacet
facet normal -0 1 0
 outer loop
  vertex 0.5 0.5 -0.5
  vertex 0.4 0.5 -0.5
  vertex 0.4 0.5 -0.40000004
 endloop
endfacet
facet normal 0 1 0
 outer loop
  vertex 0.5 0.5 -0.5
  vertex 0.4 0.5 -0.40000004
  vertex 0.5 0.5 -0.4
 endloop
endfacet
facet normal -0 1 0
 outer loop
  vertex 0.5 0.5 -0.4
  vertex 0.4 0.5 -0.40000004
  vertex 0.40000004 0.5 -7.237707e-08
 endloop
endfacet
facet normal 0 1 0
 outer loop
  vertex 0.5 0.5 -0.4
  vertex 0.40000004 0.5 -7.237707e-08
  vertex 0.5 0.5 8.51495e-09
 endloop
endfacet
facet normal -0 1 0
 outer loop
  vertex 0.5 0.5 8.51495e-09
  vertex 0.40000004 0.5 -7.237707e-08
  vertex 0.4 0.5 0.39999998
 endloop
endfacet
facet normal 0 1 0
 outer loop
  vertex 0.5 0.5 8.51495e-09
  vertex 0.4 0.5 0.39999998
  vertex 0.5 0.5 0.39999998
 endloop
endfacet
facet normal -0 -1 -0
 outer loop
  vertex 0.4 0.4 -0.5
  vertex 0.5 0.4 -0.5
  vertex 0.5 0.4 -0.40000004
 endloop
endfacet
facet normal 0 -1 -0
 outer loop
  vertex 0.4 0.4 -0.5
  vertex 0.5 0.4 -0.40000004
  vertex 0.4 0.4 -0.4
 endloop
endfacet
facet normal 2.2204464e-14 -1 7.450581e-08
 outer loop
  vertex 0.4 0.4 -0.4
  vertex 0.5 0.4 -0.40000004
  vertex 0.5 0.40000004 -7.237707e-08
 endloop
endfacet
facet normal 6.0269274e-14 -1 7.45058e-08
 outer loop
  vertex 0.4 0.4 -0.4
  vertex 0.5 0.40000004 -7.237707e-08
  vertex 0.40000004 0.40000004 8.51495e-09
 endloop
endfacet
facet normal -6.0269274e-14 -1 -7.45058e-08
 outer loop
  vertex 0.40000004 0.40000004 8.51495e-09
  vertex 0.5 0.40000004 -7.237707e-08
  vertex 0.5 0.4 0.39999998
 endloop
endfacet
facet normal 0 -1 -7.450581e-08
 outer loop
  vertex 0.40000004 0.40000004 8.51495e-09
  vertex 0.5 0.4 0.39999998
  vertex 0.4 0.4 0.39999998
 endloop
endfacet
facet normal 1 0 0
 outer loop
  vertex 0.5 0.4 -0.5
  vertex 0.5 0.5 -0.5
  vertex 0.5 0.5 -0.4
 endloop
endfacet
facet normal 1 -0 0
 outer loop
  vertex 0.5 0.4 -0.5
  vertex 0.5 0.5 -0.4
  vertex 0.5 0.4 -0.40000004
 endloop
endfacet
facet normal 1 0 0
 outer loop
  vertex 0.5 0.4 -0.40000004
  vertex 0.5 0.5 -0.4
  vertex 0.5 0.5 8.51495e-09
 endloop
endfacet
facet normal 1 -0 0
 outer loop
  vertex 0.5 0.4 -0.40000004
  vertex 0.5 0.5 8.51495e-09
  vertex 0.5 0.40000004 -7.237707e-08
 endloop
endfacet
facet normal 1 0 0
 outer loop
  vertex 0.5 0.40000004 -7.237707e-08
  vertex 0.5 0.5 8.51495e-09
  vertex 0.5 0.5 0.39999998
 endloop
endfacet
facet normal 1 -0 0
 outer loop
  vertex 0.5 0.40000004 -7.237707e-08
  vertex 0.5 0.5 0.39999998
  vertex 0.5 0.4 0.39999998
 endloop
endfacet
facet normal -1 0 0
 outer loop
  vertex 0.4 0.5 -0.5
  vertex 0.4 0.4 -0.5
  vertex 0.4 0.4 -0.4
 endloop
endfacet
facet normal -1 -0 -0
 outer loop
  vertex 0.4 0.5 -0.5
  vertex 0.4 0.4 -0.4
  vertex 0.4 0.5 -0.40000004
 endloop
endfacet
facet normal -1 2.220446e-14 7.4505806e-08
 outer loop
  vertex 0.4 0.5 -0.40000004
  vertex 0.4 0.4 -0.4
  vertex 0.40000004 0.40000004 8.51495e-09
 endloop
endfacet
facet normal -1 6.026928e-14 7.450581e-08
 outer loop
  vertex 0.4 0.5 -0.40000004
  vertex 0.40000004 0.40000004 8.51495e-09
  vertex 0.40000004 0.5 -7.237707e-08
 endloop
endfacet
facet normal -1 -6.0269274e-14 -7.4505806e-08
 outer loop
  vertex 0.40000004 0.5 -7.237707e-08
  vertex 0.40000004 0.40000004 8.51495e-09
  vertex 0.4 0.4 0.39999998
 endloop
endfacet
facet normal -1 -0 -7.45058e-08
 outer loop
  vertex 0.40000004 0.5 -7.237707e-08
  vertex 0.4 0.4 0.39999998
  vertex 0.4 0.5 0.39999998
 endloop
endfacet
facet normal -0 -1 -0
 outer loop
  vertex -0.5 0.4 -0.5
  vertex -0.4 0.4 -0.5
  vertex -0.4 0.4 -0.40000004
 endloop
endfacet
facet normal 0 -1 -0
 outer loop
  vertex -0.5 0.4 -0.5
  vertex -0.4 0.4 -0.40000004
  vertex -0.5 0.4 -0.4
 endloop
endfacet
facet normal 2.2204464e-14 -1 7.450581e-08
 outer loop
  vertex -0.5 0.4 -0.4
  vertex -0.4 0.4 -0.40000004
  vertex -0.40000004 0.40000004 -7.237707e-08
 endloop
endfacet
facet normal 6.0269274e-14 -1 7.45058e-08
 outer loop
  vertex -0.5 0.4 -0.4
  vertex -0.40000004 0.40000004 -7.237707e-08
  vertex -0.5 0.40000004 8.51495e-09
 endloop
endfacet
facet normal -6.0269274e-14 -1 -7.45058e-08
 outer loop
  vertex -0.5 0.40000004 8.51495e-09
  vertex -0.40000004 0.40000004 -7.237707e-08
  vertex -0.4 0.4 0.39999998
 endloop
endfacet
facet normal 0 -1 -7.450581e-08
 outer loop
  vertex -0.5 0.40000004 8.51495e-09
  vertex -0.4 0.4 0.39999998
  vertex -0.5 0.4 0.39999998
 endloop
endfacet
facet normal -1 0 0
 outer loop
  vertex -0.5 0.5 -0.5
  vertex -0.5 0.4 -0.5
  vertex -0.5 0.4 -0.4
 endloop
endfacet
facet normal -1 -0 -0
 outer loop
  vertex -0.5 0.5 -0.5
  vertex -0.5 0.4 -0.4
  vertex -0.5 0.5 -0.4
 endloop
endfacet
facet normal -1 0 -0
 outer loop
  vertex -0.5 0.5 -0.4
  vertex -0.5 0.4 -0.4
  vertex -0.5 0.40000004 8.51495e-09
 endloop
endfacet
facet normal -1 -0 -0
 outer loop
  vertex -0.5 0.5 -0.4
  vertex -0.5 0.40000004 8.51495e-09
  vertex -0.5 0.5 8.51495e-09
 endloop
endfacet
facet normal -1 0 0
 outer loop
  vertex -0.5 0.5 8.51495e-09
  vertex -0.5 0.40000004 8.51495e-09
  vertex -0.5 0.4 0.39999998
 endloop
endfacet
facet normal -1 -0 -0
 outer loop
  vertex -0.5 0.5 8.51495e-09
  vertex -0.5 0.4 0.39999998
  vertex -0.5 0.5 0.39999998
 endloop
endfacet
facet normal 1 0 0
 outer loop
  vertex -0.4 0.4 -0.5
  vertex -0.4 0.5 -0.5
  vertex -0.4 0.5 -0.4
 endloop
endfacet
facet normal 1 -0 0
 outer loop
  vertex -0.4 0.4 -0.5
  vertex -0.4 0.5 -0.4
  vertex -0.4 0.4 -0.40000004
 endloop
endfacet
facet normal 1 -2.220446e-14 7.4505806e-08
 outer loop
  vertex -0.4 0.4 -0.40000004
  vertex -0.4 0.5 -0.4
  vertex -0.40000004 0.5 8.51495e-09
 endloop
endfacet
facet normal 1 -6.026928e-14 7.450581e-08
 outer loop
  vertex -0.4 0.4 -0.40000004
  vertex -0.40000004 0.5 8.51495e-09
  vertex -0.40000004 0.40000004 -7.237707e-08
 endloop
endfacet
facet normal 1 6.0269274e-14 -7.4505806e-08
 outer loop
  vertex -0.40000004 0.40000004 -7.237707e-08
  vertex -0.40000004 0.5 8.51495e-09
  vertex -0.4 0.5 0.39999998
 endloop
endfacet
facet normal 1 0 -7.45058e-08
 outer loop
  vertex -0.40000004 0.40000004 -7.237707e-08
  vertex -0.4 0.5 0.39999998
  vertex -0.4 0.4 0.39999998
 endloop
endfacet
facet normal -0 1 0
 outer loop
  vertex -0.4 0.5 -0.5
  vertex -0.5 0.5 -0.5
  vertex -0.5 0.5 -0.4
 endloop
endfacet
facet normal 0 1 0
 outer loop
  vertex -0.4 0.5 -0.5
  vertex -0.5 0.5 -0.4
  vertex -0.4 0.5 -0.4
 endloop
endfacet
facet normal -0 1 0
 outer loop
  vertex -0.4 0.5 -0.4
  vertex -0.5 0.5 -0.4
  vertex -0.5 0.5 8.51495e-09
 endloop
endfacet
facet normal 0 1 0
 outer loop
  vertex -0.4 0.5 -0.4
  vertex -0.5 0.5 8.51495e-09
  vertex -0.40000004 0.5 8.51495e-09
 endloop
endfacet
facet normal -0 1 0
 outer loop
  vertex -0.40000004 0.5 8.51495e-09
  vertex -0.5 0.5 8.51495e-09
  vertex -0.5 0.5 0.39999998
 endloop
endfacet
facet normal 0 1 0
 outer loop
  vertex -0.40000004 0.5 8.51495e-09
  vertex -0.5 0.5 0.39999998
  vertex -0.4 0.5 0.39999998
 endloop
endfacet
facet normal -0 1 0
 outer loop
  vertex -0.4 0 0.39999998
  vertex -0.5 0 0.39999998
  vertex -0.5 0 0.5
 endloop
endfacet
facet normal 0 1 0
 outer loop
  vertex -0.4 0 0.39999998
  vertex -0.5 0 0.5
  vertex -0.4 0 0.5
 endloop
endfacet
facet normal 1 0 -0
 outer loop
  vertex -0.4 -0.4 0.5
  vertex -0.4 -0.4 0.39999998
  vertex -0.4 0 0.39999998
 endloop
endfacet
facet normal 1 0 0
 outer loop
  vertex -0.4 -0.4 0.5
  vertex -0.4 0 0.39999998
  vertex -0.4 0 0.5
 endloop
endfacet
facet normal 0 0 -1
 outer loop
  vertex -0.4 -0.4 0.39999998
  vertex -0.5 -0.4 0.39999998
  vertex -0.5 0 0.39999998
 endloop
endfacet
facet normal -0 -0 -1
 outer loop
  vertex -0.4 -0.4 0.39999998
  vertex -0.5 0 0.39999998
  vertex -0.4 0 0.39999998
 endloop
endfacet
facet normal 0 0 1
 outer loop
  vertex -0.5 -0.4 0.5
  vertex -0.4 -0.4 0.5
  vertex -0.4 0 0.5
 endloop
endfacet
facet normal -0 0 1
 outer loop
  vertex -0.5 -0.4 0.5
  vertex -0.4 0 0.5
  vertex -0.5 0 0.5
 endloop
endfacet
facet normal 0 0 1
 outer loop
  vertex -0.4 0.4 0.5
  vertex -0.5 0.4 0.5
  vertex -0.5 0 0.5
 endloop
endfacet
facet normal 0 -0 1
 outer loop
  vertex -0.4 0.4 0.5
  vertex -0.5 0 0.5
  vertex -0.4 0 0.5
 endloop
endfacet
facet normal -1 0 0
 outer loop
  vertex -0.5 0.4 0.5
  vertex -0.5 0.4 0.39999998
  vertex -0.5 0 0.39999998
 endloop
endfacet
facet normal -1 0 0
 outer loop
  vertex -0.5 0.4 0.5
  vertex -0.5 0 0.39999998
  vertex -0.5 0 0.5
 endloop
endfacet
facet normal 1 -0 0
 outer loop
  vertex -0.4 0.4 0.39999998
  vertex -0.4 0.4 0.5
  vertex -0.4 0 0.5
 endloop
endfacet
facet normal 1 -0 0
 outer loop
  vertex -0.4 0.4 0.39999998
  vertex -0.4 0 0.5
  vertex -0.4 0 0.39999998
 endloop
endfacet
facet normal -0 -1 -0
 outer loop
  vertex 0.4 0 0.39999998
  vertex 0.5 0 0.39999998
  vertex 0.5 0 0.5
 endloop
endfacet
facet normal 0 -1 -0
 outer loop
  vertex 0.4 0 0.39999998
  vertex 0.5 0 0.5
  vertex 0.4 0 0.5
 endloop
endfacet
facet normal -1 0 0
 outer loop
  vertex 0.4 0.4 0.5
  vertex 0.4 0.4 0.39999998
  vertex 0.4 0 0.39999998
 endloop
endfacet
facet normal -1 0 0
 outer loop
  vertex 0.4 0.4 0.5
  vertex 0.4 0 0.39999998
  vertex 0.4 0 0.5
 endloop
endfacet
facet normal 0 0 -1
 outer loop
  vertex 0.4 0.4 0.39999998
  vertex 0.5 0.4 0.39999998
  vertex 0.5 0 0.39999998
 endloop
endfacet
facet normal 0 0 -1
 outer loop
  vertex 0.4 0.4 0.39999998
  vertex 0.5 0 0.39999998
  vertex 0.4 0 0.39999998
 endloop
endfacet
facet normal 1 -0 0
 outer loop
  vertex 0.5 0.4 0.39999998
  vertex 0.5 0.4 0.5
  vertex 0.5 0 0.5
 endloop
endfacet
facet normal 1 -0 0
 outer loop
  vertex 0.5 0.4 0.39999998
  vertex 0.5 0 0.5
  vertex 0.5 0 0.39999998
 endloop
endfacet
facet normal 1 0 -0
 outer loop
  vertex 0.5 -0.4 0.5
  vertex 0.5 -0.4 0.39999998
  vertex 0.5 0 0.39999998
 endloop
endfacet
facet normal 1 0 0
 outer loop
  vertex 0.5 -0.4 0.5
  vertex 0.5 0 0.39999998
  vertex 0.5 0 0.5
 endloop
endfacet
facet normal 0 0 1
 outer loop
  vertex 0.4 -0.4 0.5
  vertex 0.5 -0.4 0.5
  vertex 0.5 0 0.5
 endloop
endfacet
facet normal -0 0 1
 outer loop
  vertex 0.4 -0.4 0.5
  vertex 0.5 0 0.5
  vertex 0.4 0 0.5
 endloop
endfacet
facet normal 0 0 -1
 outer loop
  vertex 0.5 -0.4 0.39999998
  vertex 0.4 -0.4 0.39999998
  vertex 0.4 0 0.39999998
 endloop
endfacet
facet normal -0 -0 -1
 outer loop
  vertex 0.5 -0.4 0.39999998
  vertex 0.4 0 0.39999998
  vertex 0.5 0 0.39999998
 endloop
endfacet
facet normal 1 0 0
 outer loop
  vertex 0 -0.5 0.39999998
  vertex 0 -0.4 0.39999998
  vertex 0 -0.4 0.5
 endloop
endfacet
facet normal 1 -0 0
 outer loop
  vertex 0 -0.5 0.39999998
  vertex 0 -0.4 0.5
  vertex 0 -0.5 0.5
 endloop
endfacet
facet normal 0 1 0
 outer loop
  vertex -0.4 -0.4 0.39999998
  vertex -0.4 -0.4 0.5
  vertex 0 -0.4 0.5
 endloop
endfacet
facet normal 0 1 -0
 outer loop
  vertex -0.4 -0.4 0.39999998
  vertex 0 -0.4 0.5
  vertex 0 -0.4 0.39999998
 endloop
endfacet
facet normal 0 -1 0
 outer loop
  vertex -0.4 -0.5 0.5
  vertex -0.4 -0.5 0.39999998
  vertex 0 -0.5 0.39999998
 endloop
endfacet
facet normal -0 -1 -0
 outer loop
  vertex -0.4 -0.5 0.5
  vertex 0 -0.5 0.39999998
  vertex 0 -0.5 0.5
 endloop
endfacet
facet normal 0 -0 1
 outer loop
  vertex -0.4 -0.4 0.5
  vertex -0.4 -0.5 0.5
  vertex 0 -0.5 0.5
 endloop
endfacet
facet normal 0 0 1
 outer loop
  vertex -0.4 -0.4 0.5
  vertex 0 -0.5 0.5
  vertex 0 -0.4 0.5
 endloop
endfacet
facet normal 0 -1 0
 outer loop
  vertex 0.4 -0.5 0.39999998
  vertex 0.4 -0.5 0.5
  vertex 0 -0.5 0.5
 endloop
endfacet
facet normal 0 -1 0
 outer loop
  vertex 0.4 -0.5 0.39999998
  vertex 0 -0.5 0.5
  vertex 0 -0.5 0.39999998
 endloop
endfacet
facet normal 0 1 0
 outer loop
  vertex 0.4 -0.4 0.5
  vertex 0.4 -0.4 0.39999998
  vertex 0 -0.4 0.39999998
 endloop
endfacet
facet normal -0 1 0
 outer loop
  vertex 0.4 -0.4 0.5
  vertex 0 -0.4 0.39999998
  vertex 0 -0.4 0.5
 endloop
endfacet
facet normal 0 0 -1
 outer loop
  vertex 0.4 -0.4 0.39999998
  vertex 0.4 -0.5 0.39999998
  vertex 0 -0.5 0.39999998
 endloop
endfacet
facet normal 0 0 -1
 outer loop
  vertex 0.4 -0.4 0.39999998
  vertex 0 -0.5 0.39999998
  vertex 0 -0.4 0.39999998
 endloop
endfacet
facet normal -1 0 0
 outer loop
  vertex 0 0.5 0.39999998
  vertex 0 0.4 0.39999998
  vertex 0 0.4 0.5
 endloop
endfacet
facet normal -1 -0 -0
 outer loop
  vertex 0 0.5 0.39999998
  vertex 0 0.4 0.5
  vertex 0 0.5 0.5
 endloop
endfacet
facet normal 0 -1 0
 outer loop
  vertex 0.4 0.4 0.39999998
  vertex 0.4 0.4 0.5
  vertex 0 0.4 0.5
 endloop
endfacet
facet normal 0 -1 0
 outer loop
  vertex 0.4 0.4 0.39999998
  vertex 0 0.4 0.5
  vertex 0 0.4 0.39999998
 endloop
endfacet
facet normal 0 1 0
 outer loop
  vertex 0.4 0.5 0.5
  vertex 0.4 0.5 0.39999998
  vertex 0 0.5 0.39999998
 endloop
endfacet
facet normal -0 1 0
 outer loop
  vertex 0.4 0.5 0.5
  vertex 0 0.5 0.39999998
  vertex 0 0.5 0.5
 endloop
endfacet
facet normal 0 0 -1
 outer loop
  vertex 0.4 0.5 0.39999998
  vertex 0.4 0.4 0.39999998
  vertex 0 0.4 0.39999998
 endloop
endfacet
facet normal 0 0 -1
 outer loop
  vertex 0.4 0.5 0.39999998
  vertex 0 0.4 0.39999998
  vertex 0 0.5 0.39999998
 endloop
endfacet
facet normal 0 -1 0
 outer loop
  vertex -0.4 0.4 0.5
  vertex -0.4 0.4 0.39999998
  vertex 0 0.4 0.39999998
 endloop
endfacet
facet normal -0 -1 -0
 outer loop
  vertex -0.4 0.4 0.5
  vertex 0 0.4 0.39999998
  vertex 0 0.4 0.5
 endloop
endfacet
facet normal -0 -0 -1
 outer loop
  vertex -0.4 0.4 0.39999998
  vertex -0.4 0.5 0.39999998
  vertex 0 0.5 0.39999998
 endloop
endfacet
facet normal -0 0 -1
 outer loop
  vertex -0.4 0.4 0.39999998
  vertex 0 0.5 0.39999998
  vertex 0 0.4 0.39999998
 endloop
endfacet
facet normal 0 -0 1
 outer loop
  vertex -0.4 0.5 0.5
  vertex -0.4 0.4 0.5
  vertex 0 0.4 0.5
 endloop
endfacet
facet normal 0 0 1
 outer loop
  vertex -0.4 0.5 0.5
  vertex 0 0.4 0.5
  vertex 0 0.5 0.5
 endloop
endfacet
facet normal 0 0 -1
 outer loop
  vertex -0.4 0.5 -0.5
  vertex -0.4 0.4 -0.5
  vertex -0.5 0.4 -0.5
 endloop
endfacet
facet normal 0 0 -1
 outer loop
  vertex -0.4 0.5 -0.5
  vertex -0.5 0.4 -0.5
  vertex -0.5 0.5 -0.5
 endloop
endfacet
facet normal -0 -0 -1
 outer loop
  vertex -0.5 0 -0.5
  vertex -0.5 0.4 -0.5
  vertex -0.4 0.4 -0.5
 endloop
endfacet
facet normal 0 0 -1
 outer loop
  vertex -0.40000004 0 -0.5
  vertex -0.4 -0.4 -0.5
  vertex -0.5 -0.4 -0.5
 endloop
endfacet
facet normal -0 0 -1
 outer loop
  vertex -0.5 0 -0.5
  vertex -0.4 0.4 -0.5
  vertex -0.40000004 0 -0.5
 endloop
endfacet
facet normal 0 0 -1
 outer loop
  vertex -0.40000004 0 -0.5
  vertex -0.5 -0.4 -0.5
  vertex -0.5 0 -0.5
 endloop
endfacet
facet normal 0 0 -1
 outer loop
  vertex 0 -0.5 -0.5
  vertex -0.4 -0.5 -0.5
  vertex -0.4 -0.4 -0.5
 endloop
endfacet
facet normal -0 0 -1
 outer loop
  vertex 0 -0.40000004 -0.5
  vertex 0.4 -0.4 -0.5
  vertex 0.4 -0.5 -0.5
 endloop
endfacet
facet normal -0 -0 -1
 outer loop
  vertex 0 -0.5 -0.5
  vertex -0.4 -0.4 -0.5
  vertex 0 -0.40000004 -0.5
 endloop
endfacet
facet normal 0 0 -1
 outer loop
  vertex 0 -0.40000004 -0.5
  vertex 0.4 -0.5 -0.5
  vertex 0 -0.5 -0.5
 endloop
endfacet
endsolid 
